<svg id="svg" version="1.1" xmlns="http://www.w3.org/2000/svg" xmlns:xlink="http://www.w3.org/1999/xlink" width="400" height="400" viewBox="0, 0, 400,400"><g id="svgg"><path id="path0" d="M129.883 110.156 L 126.758 110.404 129.688 110.523 C 132.336 110.630,132.055 110.689,126.758 111.138 C 109.827 112.570,100.393 116.210,91.420 124.774 C 89.602 126.510,88.366 127.578,88.674 127.148 C 89.096 126.561,88.971 126.602,88.172 127.314 C 87.067 128.299,86.668 128.977,87.695 128.125 C 88.665 127.320,88.361 128.013,86.913 129.911 C 86.160 130.897,84.822 132.919,83.940 134.404 C 83.038 135.923,82.158 136.993,81.928 136.850 C 81.682 136.698,81.637 136.788,81.816 137.077 C 82.112 137.556,79.780 142.801,79.427 142.448 C 79.325 142.346,79.610 141.543,80.059 140.663 C 80.508 139.783,80.787 139.063,80.680 139.063 C 80.281 139.063,78.886 142.229,79.119 142.606 C 79.252 142.822,78.443 145.057,77.321 147.573 C 65.577 173.908,55.674 216.102,53.373 249.609 C 53.292 250.791,53.273 249.297,53.331 246.289 C 53.414 241.969,53.371 241.395,53.126 243.555 C 52.682 247.465,52.375 254.878,52.677 254.389 C 52.817 254.162,52.906 255.411,52.874 257.164 C 52.821 260.078,52.841 260.167,53.102 258.203 L 53.388 256.055 53.452 257.867 C 53.611 262.407,55.365 268.696,57.719 273.169 C 59.149 275.888,59.166 275.936,58.547 275.578 C 58.229 275.393,58.141 275.411,58.333 275.621 C 58.512 275.817,58.849 275.977,59.082 275.977 C 59.315 275.977,59.587 276.221,59.686 276.519 C 59.810 276.892,59.698 276.963,59.328 276.745 C 58.043 275.990,63.632 282.030,65.403 283.310 C 66.032 283.766,66.403 283.905,66.227 283.620 C 66.008 283.265,66.078 283.164,66.450 283.299 C 66.748 283.407,66.948 283.696,66.893 283.940 C 66.792 284.393,69.018 285.947,69.727 285.919 C 69.941 285.910,69.441 285.546,68.615 285.111 C 67.790 284.675,67.204 284.228,67.315 284.117 C 67.426 284.006,68.292 284.370,69.239 284.925 C 77.349 289.678,88.786 288.732,98.151 282.534 C 101.515 280.308,101.945 280.102,101.172 281.089 C 100.850 281.500,101.377 281.198,102.344 280.418 C 103.311 279.638,104.040 278.875,103.966 278.722 C 103.791 278.363,105.880 276.172,106.396 276.172 C 106.611 276.172,106.274 276.743,105.648 277.441 C 105.022 278.140,106.232 277.041,108.338 275.000 C 112.019 271.432,117.719 265.250,116.309 266.356 C 115.203 267.224,115.527 266.240,116.687 265.205 C 117.485 264.494,117.609 264.453,117.188 265.039 C 116.766 265.625,116.890 265.584,117.688 264.873 C 118.793 263.888,119.191 263.210,118.164 264.063 C 117.837 264.334,117.578 264.376,117.578 264.158 C 117.578 263.653,118.562 262.833,118.838 263.109 C 118.954 263.225,120.328 261.686,121.890 259.688 C 125.897 254.562,125.673 254.876,125.047 255.253 C 124.672 255.479,124.568 255.412,124.705 255.035 C 124.814 254.736,125.083 254.531,125.304 254.577 C 125.525 254.624,125.943 254.361,126.232 253.991 C 126.706 253.386,126.691 253.373,126.074 253.856 C 125.086 254.632,125.232 253.776,126.239 252.893 C 126.769 252.428,126.961 252.368,126.750 252.734 C 126.459 253.240,126.504 253.246,127.073 252.784 C 127.789 252.204,127.980 251.755,127.344 252.148 C 126.600 252.608,126.960 251.910,128.563 249.788 C 129.960 247.937,130.988 246.891,130.273 248.047 C 129.880 248.683,130.329 248.492,130.909 247.777 C 131.273 247.327,131.289 247.210,130.957 247.409 C 130.688 247.570,130.469 247.597,130.469 247.467 C 130.469 247.125,133.579 242.969,133.835 242.969 C 133.954 242.969,133.406 243.848,132.617 244.922 C 131.829 245.996,131.265 246.875,131.365 246.875 C 131.465 246.875,132.296 245.882,133.213 244.669 C 134.129 243.455,134.654 242.601,134.381 242.770 C 134.051 242.974,133.944 242.895,134.064 242.535 C 134.163 242.236,134.471 241.992,134.748 241.992 C 135.025 241.992,135.692 241.377,136.231 240.625 L 137.210 239.258 135.998 240.625 C 135.332 241.377,134.785 241.816,134.782 241.602 C 134.779 241.387,135.403 240.508,136.167 239.648 C 136.931 238.789,137.426 238.350,137.266 238.672 C 137.071 239.064,137.256 239.012,137.823 238.514 C 138.771 237.682,139.005 237.128,138.086 237.891 C 137.034 238.764,137.471 237.662,138.562 236.689 C 139.360 235.978,139.484 235.937,139.063 236.523 C 138.641 237.110,138.765 237.068,139.563 236.358 C 140.668 235.373,141.066 234.694,140.039 235.547 C 138.882 236.507,139.481 235.277,140.717 234.155 C 141.748 233.219,141.837 233.186,141.205 233.977 C 140.779 234.510,141.861 233.619,143.611 231.996 C 145.360 230.373,147.764 228.537,148.952 227.914 C 150.141 227.292,151.039 226.663,150.948 226.516 C 150.638 226.015,153.217 225.396,154.834 225.583 C 156.032 225.721,156.195 225.686,155.469 225.444 C 153.203 224.691,160.567 224.570,201.758 224.685 L 244.727 224.805 247.266 225.680 C 251.542 227.153,259.375 232.845,259.375 234.479 C 259.375 234.711,258.013 233.579,256.348 231.964 C 254.683 230.348,252.881 228.819,252.344 228.565 L 251.367 228.102 252.344 228.761 C 252.881 229.124,255.254 231.369,257.617 233.751 C 260.041 236.194,261.345 237.316,260.607 236.326 L 259.301 234.570 261.088 236.523 C 262.881 238.484,263.484 239.618,262.207 238.629 C 261.651 238.198,261.662 238.262,262.268 238.972 C 263.078 239.922,263.502 240.134,263.034 239.355 C 262.835 239.024,262.952 239.039,263.402 239.403 C 264.139 240.001,264.316 240.828,263.614 240.394 C 263.368 240.242,264.068 241.308,265.170 242.764 C 266.272 244.219,267.061 245.591,266.925 245.812 C 266.788 246.033,266.854 246.104,267.072 245.970 C 267.290 245.835,268.478 247.127,269.712 248.841 C 270.945 250.554,272.137 252.069,272.360 252.207 C 272.803 252.480,270.125 248.774,264.292 241.038 C 263.975 240.618,263.986 240.546,264.335 240.756 C 265.140 241.239,273.114 252.309,272.903 252.651 C 272.793 252.829,273.146 253.492,273.688 254.124 L 274.674 255.273 273.834 254.004 C 273.372 253.306,273.078 252.734,273.181 252.734 C 273.471 252.734,281.315 262.956,281.151 263.120 C 281.072 263.199,280.338 262.387,279.520 261.314 C 278.702 260.241,277.837 259.243,277.598 259.095 C 277.359 258.947,277.545 259.313,278.013 259.907 C 278.480 260.501,278.813 261.196,278.753 261.451 C 278.693 261.706,278.726 261.757,278.826 261.566 C 278.926 261.374,279.613 261.901,280.353 262.737 C 281.092 263.574,281.568 263.994,281.411 263.672 C 281.253 263.350,281.592 263.512,282.164 264.033 C 283.422 265.180,283.566 266.051,282.324 265.008 C 281.836 264.598,281.954 264.830,282.589 265.529 C 283.218 266.222,283.819 266.702,283.924 266.597 C 284.178 266.343,285.547 267.592,285.547 268.077 C 285.547 268.285,285.239 268.221,284.863 267.936 C 284.487 267.650,284.771 268.053,285.493 268.831 C 286.305 269.705,286.692 270.430,286.507 270.730 C 286.328 271.019,286.368 271.115,286.606 270.968 C 287.113 270.655,288.383 272.023,287.989 272.458 C 287.828 272.636,287.895 272.667,288.139 272.528 C 288.678 272.220,289.564 273.184,289.157 273.634 C 288.997 273.810,289.067 273.839,289.311 273.700 C 289.790 273.426,290.743 274.318,290.426 274.743 C 290.321 274.884,290.347 274.916,290.486 274.814 C 290.624 274.712,291.898 275.643,293.318 276.883 C 296.420 279.593,299.219 281.783,299.219 281.501 C 299.219 281.388,298.153 280.476,296.851 279.474 C 295.549 278.472,294.566 277.570,294.666 277.469 C 294.767 277.368,296.052 278.258,297.522 279.447 C 309.389 289.039,323.866 290.654,333.315 283.442 C 335.481 281.788,336.267 281.582,334.555 283.116 C 333.902 283.701,333.587 284.033,333.854 283.853 C 334.122 283.673,334.551 283.657,334.809 283.816 C 335.083 283.985,335.175 283.940,335.031 283.706 C 334.895 283.487,335.127 282.997,335.547 282.617 C 335.966 282.237,336.233 281.803,336.140 281.652 C 336.046 281.501,336.688 280.689,337.566 279.849 C 344.381 273.324,347.412 262.725,346.492 248.633 C 344.176 213.164,333.615 170.282,320.486 143.039 C 314.654 130.939,310.540 125.589,302.939 120.226 C 301.430 119.161,300.244 118.116,300.303 117.905 C 300.362 117.693,300.237 117.627,300.025 117.758 C 299.814 117.889,298.623 117.485,297.379 116.861 C 290.522 113.422,281.116 111.477,267.773 110.739 C 260.977 110.363,254.555 111.733,250.599 114.403 C 248.644 115.723,248.230 115.886,248.680 115.158 C 249.114 114.456,246.797 116.185,245.898 117.234 C 245.442 117.766,245.732 117.621,246.596 116.885 C 248.723 115.072,248.885 115.335,246.892 117.366 C 245.952 118.323,245.050 119.025,244.888 118.925 C 244.726 118.824,244.257 119.170,243.846 119.693 C 243.391 120.271,242.575 120.708,241.764 120.806 L 240.430 120.969 241.886 121.031 C 243.050 121.081,243.471 120.896,243.989 120.105 C 244.346 119.561,244.718 119.198,244.818 119.297 C 244.917 119.396,244.674 119.924,244.277 120.469 L 243.555 121.460 200.321 121.472 L 157.087 121.484 153.836 118.254 C 148.790 113.239,144.145 111.196,136.523 110.638 L 132.617 110.352 135.156 110.126 L 137.695 109.900 135.352 109.905 C 134.063 109.907,131.602 110.020,129.883 110.156 M265.234 110.168 C 266.846 110.320,269.395 110.440,270.898 110.434 C 273.611 110.423,273.605 110.421,270.117 110.136 C 268.184 109.978,265.635 109.858,264.453 109.870 C 262.507 109.890,262.580 109.918,265.234 110.168 M138.770 110.426 C 139.146 110.524,139.761 110.524,140.137 110.426 C 140.513 110.327,140.205 110.247,139.453 110.247 C 138.701 110.247,138.394 110.327,138.770 110.426 M257.875 110.619 C 255.131 111.232,256.212 111.329,259.385 110.755 C 261.035 110.457,261.710 110.230,260.938 110.233 C 260.186 110.237,258.807 110.410,257.875 110.619 M123.535 110.827 C 124.126 110.916,125.093 110.916,125.684 110.827 C 126.274 110.737,125.791 110.664,124.609 110.664 C 123.428 110.664,122.944 110.737,123.535 110.827 M141.797 110.938 C 143.132 111.365,144.159 111.365,143.164 110.938 C 142.734 110.753,142.031 110.607,141.602 110.613 C 140.974 110.622,141.012 110.686,141.797 110.938 M274.712 110.827 C 275.306 110.917,276.185 110.915,276.666 110.822 C 277.146 110.729,276.660 110.656,275.586 110.659 C 274.512 110.662,274.119 110.737,274.712 110.827 M118.359 111.328 C 116.407 111.739,118.410 111.756,120.703 111.348 C 122.289 111.066,122.327 111.036,121.094 111.038 C 120.342 111.039,119.111 111.170,118.359 111.328 M278.613 111.207 C 278.989 111.305,279.604 111.305,279.980 111.207 C 280.356 111.109,280.049 111.028,279.297 111.028 C 278.545 111.028,278.237 111.109,278.613 111.207 M147.266 112.920 C 149.872 114.212,151.292 115.270,153.871 117.842 L 157.157 121.119 161.293 120.994 L 165.430 120.869 161.133 120.768 L 156.836 120.667 155.686 119.220 C 153.183 116.071,148.014 112.384,144.922 111.541 C 144.385 111.395,145.439 112.016,147.266 112.920 M285.938 112.500 C 287.273 112.928,288.300 112.928,287.305 112.500 C 286.875 112.315,286.172 112.169,285.742 112.176 C 285.114 112.185,285.152 112.249,285.938 112.500 M109.983 112.927 C 110.104 113.122,109.884 113.295,109.496 113.312 C 109.107 113.329,108.980 113.422,109.213 113.519 C 109.446 113.615,110.049 113.542,110.552 113.356 L 111.466 113.018 110.615 112.795 C 110.147 112.673,109.863 112.732,109.983 112.927 M250.684 113.505 C 248.664 114.828,248.831 115.095,250.879 113.820 C 252.849 112.592,252.974 112.493,252.507 112.523 C 252.310 112.536,251.489 112.978,250.684 113.505 M288.881 112.855 C 288.195 113.123,288.230 113.184,289.220 113.432 C 289.829 113.585,290.423 113.613,290.541 113.496 C 290.659 113.378,290.418 113.279,290.007 113.275 C 289.380 113.270,289.354 113.207,289.844 112.891 C 290.532 112.446,289.979 112.426,288.881 112.855 M292.750 114.462 C 293.812 114.876,294.742 115.154,294.817 115.079 C 295.004 114.892,291.901 113.667,291.301 113.690 C 291.036 113.700,291.689 114.048,292.750 114.462 M295.345 115.383 C 295.744 115.746,299.609 117.571,299.609 117.396 C 299.609 117.176,295.879 115.234,295.456 115.234 C 295.305 115.234,295.256 115.301,295.345 115.383 M101.855 116.239 C 100.341 117.061,100.512 117.344,102.051 116.562 C 103.523 115.813,103.784 115.619,103.288 115.641 C 103.091 115.649,102.446 115.919,101.855 116.239 M97.014 119.229 C 95.335 120.351,92.816 122.392,91.415 123.763 L 88.867 126.257 91.602 123.848 C 93.105 122.523,95.654 120.553,97.266 119.470 C 100.435 117.339,100.636 117.188,100.293 117.188 C 100.168 117.188,98.692 118.106,97.014 119.229 M300.781 118.051 C 300.889 118.176,302.471 119.382,304.297 120.731 C 309.988 124.937,313.103 128.634,317.675 136.612 C 319.125 139.141,320.312 141.032,320.312 140.814 C 320.313 140.256,315.968 132.798,314.217 130.353 C 311.694 126.828,309.004 123.951,306.115 121.689 C 303.638 119.748,300.258 117.443,300.781 118.051 M166.113 120.972 C 166.489 121.071,167.104 121.071,167.480 120.972 C 167.856 120.874,167.549 120.794,166.797 120.794 C 166.045 120.794,165.737 120.874,166.113 120.972 M182.316 120.985 C 183.009 121.071,184.239 121.073,185.050 120.988 C 185.860 120.904,185.293 120.833,183.789 120.831 C 182.285 120.830,181.622 120.899,182.316 120.985 M191.691 120.985 C 192.384 121.071,193.614 121.073,194.425 120.988 C 195.235 120.904,194.668 120.833,193.164 120.831 C 191.660 120.830,190.997 120.899,191.691 120.985 M197.559 120.979 C 198.042 121.072,198.833 121.072,199.316 120.979 C 199.800 120.886,199.404 120.810,198.438 120.810 C 197.471 120.810,197.075 120.886,197.559 120.979 M216.313 120.979 C 216.799 121.073,217.502 121.069,217.876 120.972 C 218.249 120.874,217.852 120.797,216.992 120.802 C 216.133 120.806,215.827 120.886,216.313 120.979 M222.363 120.972 C 222.739 121.071,223.354 121.071,223.730 120.972 C 224.106 120.874,223.799 120.794,223.047 120.794 C 222.295 120.794,221.987 120.874,222.363 120.972 M226.085 120.990 C 227.003 121.072,228.410 121.071,229.210 120.987 C 230.010 120.903,229.258 120.836,227.539 120.837 C 225.820 120.838,225.166 120.907,226.085 120.990 M235.441 120.985 C 236.134 121.071,237.364 121.073,238.175 120.988 C 238.985 120.904,238.418 120.833,236.914 120.831 C 235.410 120.830,234.747 120.899,235.441 120.985 M85.934 130.083 C 85.473 130.730,84.907 131.142,84.675 130.999 C 84.423 130.843,84.368 130.922,84.537 131.195 C 85.021 131.980,82.260 135.999,81.625 135.434 C 81.225 135.079,81.231 135.143,81.649 135.692 C 82.167 136.373,82.232 136.377,82.606 135.756 C 82.827 135.390,83.926 133.699,85.048 131.998 C 87.029 128.995,87.623 127.711,85.934 130.083 M282.227 137.277 C 295.420 143.141,290.660 162.347,276.186 161.653 C 272.255 161.464,266.406 158.400,266.406 156.530 C 266.406 156.304,267.065 156.781,267.871 157.588 C 268.677 158.396,269.688 159.243,270.117 159.470 C 270.547 159.698,269.942 159.023,268.774 157.969 C 267.605 156.916,266.498 156.101,266.314 156.159 C 265.440 156.429,263.902 151.766,263.940 148.957 C 263.993 144.892,267.550 138.281,269.683 138.281 C 269.892 138.281,269.340 138.900,268.456 139.656 C 266.679 141.177,264.430 145.257,264.495 146.840 C 264.526 147.585,264.632 147.430,264.896 146.254 C 265.345 144.260,267.659 140.393,268.318 140.537 C 268.587 140.596,268.709 140.483,268.587 140.287 C 268.466 140.090,268.803 139.643,269.337 139.293 C 269.871 138.943,270.265 138.463,270.212 138.225 C 270.160 137.987,270.361 137.704,270.660 137.596 C 270.989 137.476,271.097 137.570,270.933 137.835 C 270.762 138.112,270.881 138.188,271.256 138.044 C 271.583 137.919,271.812 137.619,271.765 137.377 C 271.453 135.771,278.682 135.702,282.227 137.277 M273.906 136.690 C 272.052 137.163,272.079 137.325,274.007 137.314 C 274.940 137.309,275.623 137.173,275.524 137.012 C 275.425 136.851,276.058 136.719,276.930 136.719 C 277.802 136.719,278.516 136.870,278.516 137.055 C 278.516 137.240,278.927 137.313,279.431 137.217 C 279.944 137.119,280.609 137.306,280.947 137.643 C 281.277 137.974,281.640 138.152,281.753 138.039 C 283.118 136.673,288.418 143.061,289.058 146.844 C 289.339 148.499,289.364 148.531,289.403 147.266 C 289.594 141.084,280.636 134.971,273.906 136.690 M130.596 141.379 C 130.989 141.394,131.824 141.920,132.452 142.548 L 133.594 143.690 133.594 154.260 L 133.594 164.830 143.360 164.935 C 149.517 165.000,153.136 165.183,153.153 165.430 C 153.168 165.645,153.432 166.098,153.740 166.438 C 154.047 166.778,154.166 167.201,154.005 167.379 C 153.843 167.558,153.912 167.588,154.158 167.448 C 154.938 167.002,155.057 168.187,154.969 175.547 C 154.873 183.546,154.678 184.175,152.205 184.486 L 150.977 184.641 152.211 184.703 C 153.154 184.751,153.685 184.481,154.457 183.564 C 155.888 181.864,156.034 169.116,154.650 166.797 L 153.834 165.430 154.749 166.319 C 155.636 167.180,155.668 167.438,155.785 174.593 C 155.969 185.825,156.565 185.315,143.262 185.324 L 133.594 185.330 133.594 196.016 L 133.594 206.701 132.452 207.843 L 131.310 208.984 123.839 208.984 C 112.655 208.984,113.281 209.785,113.281 195.487 L 113.281 185.152 106.934 185.379 C 92.423 185.900,90.806 185.336,91.093 179.857 C 91.188 178.045,91.122 176.563,90.946 176.563 C 90.769 176.563,90.628 176.167,90.631 175.684 C 90.636 174.953,90.708 174.903,91.058 175.391 C 91.414 175.884,91.445 175.869,91.259 175.290 C 91.137 174.912,91.013 173.048,90.983 171.147 C 90.883 164.917,91.030 164.844,103.692 164.844 L 113.281 164.844 113.283 154.395 C 113.286 140.055,112.445 140.687,130.596 141.379 M114.715 142.899 L 113.659 144.001 113.770 154.911 L 113.880 165.820 113.971 154.833 C 114.059 144.326,114.386 141.526,115.328 143.245 C 115.421 143.416,115.441 143.328,115.372 143.051 C 115.304 142.775,115.640 142.390,116.120 142.197 C 116.669 141.976,116.766 141.837,116.382 141.822 C 116.046 141.808,115.296 142.293,114.715 142.899 M129.492 141.989 C 129.707 142.061,130.347 142.221,130.914 142.345 C 132.519 142.697,132.604 143.254,132.824 154.883 L 133.032 165.820 133.117 154.842 L 133.203 143.864 132.245 142.830 C 131.625 142.161,130.902 141.808,130.194 141.828 C 129.593 141.845,129.277 141.917,129.492 141.989 M321.517 143.945 C 321.517 144.160,321.854 144.951,322.266 145.703 C 322.677 146.455,323.014 146.895,323.014 146.680 C 323.014 146.465,322.677 145.674,322.266 144.922 C 321.854 144.170,321.517 143.730,321.517 143.945 M75.845 149.040 C 75.190 150.477,75.315 150.783,76.023 149.477 C 76.353 148.867,76.551 148.295,76.461 148.206 C 76.372 148.117,76.094 148.492,75.845 149.040 M323.482 148.242 C 323.489 148.457,323.834 149.336,324.247 150.195 C 324.660 151.055,324.889 151.318,324.755 150.781 C 324.480 149.675,323.462 147.645,323.482 148.242 M264.459 151.400 C 264.462 151.812,264.644 152.412,264.862 152.734 C 265.151 153.162,265.187 153.004,264.996 152.148 C 264.675 150.712,264.451 150.400,264.459 151.400 M325.028 152.148 C 325.028 152.363,325.279 152.979,325.586 153.516 C 325.893 154.053,326.144 154.316,326.144 154.102 C 326.144 153.887,325.893 153.271,325.586 152.734 C 325.279 152.197,325.028 151.934,325.028 152.148 M287.111 155.855 C 286.883 156.283,286.489 156.591,286.237 156.539 C 285.984 156.488,285.762 156.709,285.742 157.031 C 285.723 157.354,285.482 157.569,285.207 157.510 C 284.932 157.451,284.815 157.576,284.946 157.788 C 286.144 159.727,276.464 161.758,272.461 160.408 C 272.031 160.263,272.290 160.427,273.036 160.773 C 275.028 161.696,280.085 161.409,282.472 160.238 C 284.782 159.105,288.880 155.078,287.723 155.078 C 287.615 155.078,287.340 155.428,287.111 155.855 M72.309 157.856 C 72.068 158.546,71.940 159.179,72.023 159.263 C 72.107 159.347,72.372 158.850,72.613 158.160 C 72.853 157.469,72.982 156.836,72.898 156.753 C 72.815 156.669,72.550 157.166,72.309 157.856 M257.310 162.237 C 259.550 163.384,262.109 165.463,262.109 166.135 C 262.109 166.372,261.450 165.921,260.643 165.133 C 259.550 164.066,259.029 163.796,258.593 164.071 C 258.082 164.394,258.621 164.670,259.148 164.355 C 259.441 164.181,261.309 166.120,261.130 166.411 C 261.034 166.567,261.335 166.673,261.800 166.648 C 264.502 166.500,265.646 174.621,263.554 179.102 C 262.495 181.368,260.020 184.375,259.213 184.375 C 258.996 184.375,259.628 183.540,260.617 182.520 C 262.266 180.818,263.697 178.620,263.655 177.851 C 263.645 177.680,263.274 178.242,262.829 179.102 C 261.810 181.073,260.157 182.859,259.645 182.543 C 259.430 182.410,259.367 182.484,259.506 182.708 C 259.644 182.932,259.497 183.330,259.180 183.594 C 258.862 183.857,258.695 184.222,258.807 184.404 C 259.956 186.263,249.950 187.285,246.416 185.670 C 240.765 183.088,237.421 176.515,238.889 170.878 C 239.554 168.325,240.531 166.302,240.969 166.573 C 241.140 166.678,241.940 166.088,242.748 165.260 C 243.556 164.433,244.905 163.446,245.745 163.067 C 246.586 162.688,247.200 162.304,247.111 162.215 C 246.772 161.876,244.272 163.427,242.676 164.968 C 241.763 165.848,241.016 166.391,241.016 166.174 C 241.016 165.956,241.587 165.236,242.285 164.573 C 246.136 160.919,252.732 159.893,257.310 162.237 M305.477 161.572 C 307.491 162.378,307.318 162.647,305.258 161.914 C 303.595 161.321,299.130 161.187,297.852 161.691 C 297.419 161.861,298.379 161.917,300.000 161.816 C 303.776 161.579,306.238 162.198,306.281 163.394 C 306.302 163.978,306.384 164.068,306.535 163.672 C 306.760 163.081,307.405 162.517,307.868 162.506 C 308.289 162.496,312.109 166.062,312.109 166.466 C 312.109 166.673,311.890 166.717,311.621 166.562 C 311.337 166.399,311.269 166.430,311.458 166.637 C 311.637 166.832,311.987 166.992,312.236 166.992 C 313.276 166.992,314.483 171.154,314.333 174.219 C 313.664 187.861,295.626 191.271,289.535 178.906 C 284.717 169.126,295.380 157.532,305.477 161.572 M248.263 161.681 C 247.537 161.965,247.542 161.988,248.361 162.202 C 248.842 162.328,249.219 162.247,249.219 162.017 C 249.219 161.748,250.328 161.675,252.441 161.804 C 254.214 161.912,255.225 161.867,254.688 161.703 C 253.412 161.315,249.235 161.300,248.263 161.681 M256.155 162.369 C 256.425 162.478,256.529 162.755,256.387 162.984 C 256.237 163.228,256.313 163.288,256.572 163.128 C 256.816 162.978,257.370 163.045,257.804 163.277 C 258.239 163.509,258.594 163.610,258.594 163.500 C 258.594 163.245,256.389 162.099,255.976 162.140 C 255.805 162.157,255.885 162.260,256.155 162.369 M294.510 163.222 C 293.555 163.834,292.425 164.757,291.998 165.273 C 291.322 166.092,291.371 166.078,292.389 165.165 C 293.030 164.589,294.346 163.668,295.313 163.118 C 296.279 162.569,296.885 162.117,296.659 162.114 C 296.432 162.111,295.465 162.610,294.510 163.222 M307.422 163.041 C 307.422 163.124,307.905 163.502,308.496 163.883 L 309.570 164.574 308.826 163.732 C 308.168 162.987,307.422 162.620,307.422 163.041 M68.208 169.771 C 67.392 172.249,66.793 174.345,66.876 174.428 C 66.959 174.511,67.695 172.552,68.511 170.073 C 69.326 167.595,69.926 165.499,69.843 165.415 C 69.759 165.332,69.024 167.292,68.208 169.771 M92.880 165.844 C 91.818 166.420,90.894 168.553,91.366 169.336 C 91.496 169.551,91.657 169.152,91.725 168.450 C 91.802 167.649,92.006 167.271,92.273 167.436 C 92.511 167.583,92.588 167.520,92.447 167.292 C 91.706 166.093,93.460 165.821,103.282 165.612 L 113.086 165.403 103.516 165.334 C 95.711 165.278,93.749 165.372,92.880 165.844 M137.598 165.526 C 139.907 165.595,143.687 165.595,145.996 165.526 C 148.306 165.457,146.416 165.400,141.797 165.400 C 137.178 165.400,135.288 165.457,137.598 165.526 M330.139 165.430 C 330.138 165.645,330.369 166.436,330.653 167.188 L 331.168 168.555 331.112 167.129 C 331.080 166.345,330.938 165.775,330.795 165.862 C 330.652 165.949,330.446 165.800,330.338 165.530 C 330.229 165.260,330.139 165.215,330.139 165.430 M290.230 167.676 C 289.804 168.374,289.455 169.106,289.455 169.303 C 289.453 169.749,289.508 169.676,290.541 167.871 C 291.568 166.077,291.306 165.912,290.230 167.676 M262.929 168.826 C 263.389 169.727,263.909 171.704,264.086 173.220 L 264.406 175.977 264.293 173.242 C 264.192 170.804,262.995 167.188,262.289 167.188 C 262.181 167.188,262.470 167.925,262.929 168.826 M313.133 169.922 C 313.288 170.459,313.548 172.041,313.712 173.438 L 314.011 175.977 313.898 173.212 C 313.836 171.691,313.576 170.109,313.320 169.696 C 312.902 169.024,312.883 169.047,313.133 169.922 M288.922 170.785 C 288.790 171.277,288.706 172.646,288.734 173.828 C 288.784 175.864,288.801 175.824,289.065 173.047 C 289.359 169.958,289.318 169.307,288.922 170.785 M66.239 176.004 C 66.095 176.577,66.053 177.121,66.145 177.213 C 66.237 177.305,66.430 176.912,66.574 176.339 C 66.717 175.767,66.760 175.223,66.667 175.131 C 66.575 175.039,66.383 175.432,66.239 176.004 M334.039 177.734 C 334.039 178.057,334.190 178.672,334.375 179.102 C 334.587 179.594,334.711 179.666,334.711 179.297 C 334.711 178.975,334.560 178.359,334.375 177.930 C 334.163 177.437,334.039 177.365,334.039 177.734 M65.458 178.739 C 65.314 179.311,65.272 179.855,65.364 179.947 C 65.456 180.039,65.649 179.646,65.792 179.074 C 65.936 178.501,65.978 177.957,65.886 177.865 C 65.794 177.773,65.601 178.166,65.458 178.739 M312.306 179.295 C 311.013 182.162,308.458 184.261,304.883 185.391 C 304.023 185.663,303.672 185.893,304.102 185.903 C 307.056 185.969,314.605 179.319,313.186 177.899 C 313.091 177.804,312.695 178.432,312.306 179.295 M239.844 178.363 C 239.844 179.601,243.041 183.272,245.215 184.529 C 246.385 185.206,245.567 184.355,244.287 183.564 C 243.509 183.083,242.190 181.635,241.358 180.346 C 240.525 179.058,239.844 178.165,239.844 178.363 M290.637 180.175 C 290.613 180.742,293.513 183.653,294.697 184.250 C 296.056 184.934,295.780 184.622,293.645 183.058 C 292.835 182.465,292.277 181.812,292.405 181.605 C 292.532 181.399,292.460 181.279,292.244 181.338 C 292.028 181.397,291.582 181.094,291.251 180.664 C 290.920 180.234,290.644 180.014,290.637 180.175 M91.497 181.641 C 91.497 182.393,91.577 182.700,91.676 182.324 C 91.774 181.948,91.774 181.333,91.676 180.957 C 91.577 180.581,91.497 180.889,91.497 181.641 M92.009 183.176 C 91.214 184.463,93.423 184.766,103.603 184.766 L 113.672 184.766 113.672 195.538 L 113.672 206.310 114.814 207.452 C 115.925 208.564,116.052 208.592,119.599 208.524 L 123.242 208.455 119.398 208.231 C 113.737 207.902,114.063 208.694,114.063 195.269 L 114.063 184.375 103.881 184.375 C 94.093 184.375,91.805 184.138,92.395 183.184 C 92.521 182.979,92.536 182.813,92.429 182.813 C 92.321 182.813,92.132 182.976,92.009 183.176 M63.895 184.208 C 63.751 184.780,63.709 185.324,63.801 185.416 C 63.893 185.508,64.086 185.115,64.230 184.542 C 64.374 183.970,64.416 183.426,64.324 183.334 C 64.232 183.242,64.039 183.635,63.895 184.208 M133.000 184.863 C 132.690 185.711,132.603 206.966,132.910 206.776 C 133.071 206.676,133.203 201.695,133.203 195.707 L 133.203 184.820 134.082 184.651 L 134.961 184.481 134.070 184.428 C 133.580 184.399,133.098 184.595,133.000 184.863 M139.180 184.666 C 141.286 184.737,144.626 184.737,146.602 184.666 C 148.578 184.595,146.855 184.537,142.773 184.538 C 138.691 184.538,137.075 184.596,139.180 184.666 M256.633 184.761 C 256.971 184.970,256.727 185.161,255.883 185.346 C 255.195 185.497,254.720 185.710,254.829 185.818 C 255.063 186.052,257.730 185.216,257.965 184.835 C 258.055 184.689,257.679 184.543,257.129 184.510 C 256.491 184.472,256.312 184.562,256.633 184.761 M281.897 186.494 C 294.070 191.957,291.406 209.316,278.125 211.077 C 276.696 211.266,276.843 211.181,278.906 210.621 C 280.303 210.243,281.797 209.706,282.227 209.429 L 283.008 208.925 282.227 209.205 C 279.513 210.177,277.298 210.563,275.391 210.396 C 273.722 210.251,273.504 210.287,274.414 210.559 C 275.414 210.858,275.338 210.882,273.893 210.718 C 271.498 210.448,268.800 208.964,266.844 206.842 C 257.266 196.451,268.935 180.678,281.897 186.494 M272.783 186.109 C 269.661 187.085,266.534 189.688,265.061 192.535 C 263.996 194.595,264.407 194.377,265.749 192.170 C 266.462 190.998,267.267 190.087,267.536 190.146 C 267.806 190.205,267.919 190.080,267.788 189.867 C 267.469 189.351,270.709 187.028,271.385 187.288 C 271.677 187.399,271.816 187.330,271.695 187.134 C 271.475 186.778,274.360 186.047,276.953 185.801 C 277.891 185.713,277.708 185.660,276.367 185.636 C 275.293 185.616,273.680 185.829,272.783 186.109 M62.764 188.373 C 62.404 189.807,62.125 191.208,62.145 191.487 C 62.164 191.765,62.511 190.762,62.916 189.258 C 63.322 187.754,63.600 186.353,63.536 186.145 C 63.472 185.936,63.125 186.939,62.764 188.373 M250.684 186.220 C 251.382 186.307,252.524 186.307,253.223 186.220 C 253.921 186.133,253.350 186.063,251.953 186.063 C 250.557 186.063,249.985 186.133,250.684 186.220 M279.263 186.221 C 280.009 186.362,280.090 186.478,279.653 186.780 C 279.249 187.059,279.331 187.096,279.961 186.920 C 281.568 186.469,285.542 189.104,284.730 190.082 C 284.406 190.472,284.517 190.547,285.227 190.419 C 286.478 190.192,288.417 193.144,288.099 194.792 L 287.886 195.898 288.314 194.816 C 289.336 192.233,282.613 185.799,279.102 185.999 C 278.491 186.034,278.526 186.083,279.263 186.221 M300.688 186.214 C 301.174 186.307,301.877 186.304,302.251 186.206 C 302.624 186.108,302.227 186.032,301.367 186.036 C 300.508 186.040,300.202 186.120,300.688 186.214 M336.797 187.305 C 336.797 187.734,336.937 188.525,337.109 189.063 C 337.357 189.836,337.422 189.876,337.422 189.258 C 337.422 188.828,337.281 188.037,337.109 187.500 C 336.862 186.727,336.797 186.686,336.797 187.305 M337.759 191.398 C 337.887 192.145,338.227 193.464,338.514 194.328 C 339.012 195.825,339.026 195.835,338.804 194.540 C 338.675 193.792,338.336 192.474,338.048 191.610 C 337.550 190.112,337.537 190.102,337.759 191.398 M288.959 197.266 C 289.076 198.662,289.235 199.878,289.312 199.967 C 289.585 200.283,289.371 196.667,289.061 195.703 C 288.872 195.117,288.831 195.742,288.959 197.266 M263.789 198.047 C 263.789 199.229,263.862 199.712,263.952 199.121 C 264.041 198.530,264.041 197.563,263.952 196.973 C 263.862 196.382,263.789 196.865,263.789 198.047 M60.373 198.264 C 60.226 199.048,60.184 199.767,60.279 199.863 C 60.375 199.958,60.573 199.395,60.720 198.611 C 60.868 197.827,60.910 197.108,60.814 197.012 C 60.719 196.917,60.520 197.480,60.373 198.264 M59.553 201.094 C 59.543 201.674,59.421 202.939,59.280 203.906 C 59.104 205.124,59.212 204.902,59.633 203.186 C 59.970 201.810,60.091 200.560,59.905 200.374 C 59.719 200.188,59.562 200.508,59.553 201.094 M264.068 201.009 C 264.072 201.421,264.253 202.021,264.471 202.344 C 264.761 202.772,264.797 202.614,264.605 201.758 C 264.284 200.322,264.060 200.010,264.068 201.009 M287.664 203.710 C 287.227 204.651,287.030 205.323,287.225 205.202 C 287.625 204.955,288.789 202.330,288.587 202.129 C 288.516 202.057,288.100 202.769,287.664 203.710 M58.398 207.422 C 58.248 208.310,58.207 209.119,58.308 209.219 C 58.408 209.319,58.607 208.669,58.750 207.773 C 58.893 206.878,58.934 206.069,58.841 205.976 C 58.748 205.883,58.549 206.534,58.398 207.422 M267.384 206.970 C 268.530 208.249,271.748 210.160,272.741 210.152 C 273.017 210.150,272.275 209.700,271.094 209.152 C 269.912 208.604,268.330 207.595,267.579 206.910 L 266.213 205.664 267.384 206.970 M284.766 207.494 C 283.799 208.375,283.359 208.911,283.789 208.683 C 284.524 208.295,287.063 205.841,286.694 205.875 C 286.600 205.884,285.732 206.613,284.766 207.494 M131.352 207.512 C 131.403 207.761,130.918 208.085,130.273 208.233 C 129.172 208.485,129.161 208.504,130.101 208.548 C 131.448 208.610,132.820 207.658,131.895 207.303 C 131.517 207.158,131.297 207.243,131.352 207.512 M57.422 212.500 C 57.163 214.032,57.032 215.365,57.129 215.462 C 57.226 215.559,57.513 214.381,57.767 212.845 C 58.020 211.308,58.152 209.975,58.060 209.883 C 57.967 209.790,57.680 210.968,57.422 212.500 M56.072 220.135 C 55.923 221.131,55.881 222.027,55.978 222.124 C 56.076 222.222,56.278 221.486,56.428 220.490 C 56.577 219.494,56.619 218.598,56.522 218.501 C 56.424 218.403,56.222 219.139,56.072 220.135 M55.559 223.828 C 55.559 224.580,55.640 224.888,55.738 224.512 C 55.836 224.136,55.836 223.521,55.738 223.145 C 55.640 222.769,55.559 223.076,55.559 223.828 M344.231 223.828 C 344.231 224.580,344.312 224.888,344.410 224.512 C 344.508 224.136,344.508 223.521,344.410 223.145 C 344.312 222.769,344.231 223.076,344.231 223.828 M158.097 225.282 C 158.790 225.368,160.021 225.370,160.831 225.285 C 161.642 225.201,161.074 225.130,159.570 225.128 C 158.066 225.126,157.403 225.196,158.097 225.282 M162.988 225.269 C 163.364 225.368,163.979 225.368,164.355 225.269 C 164.731 225.171,164.424 225.091,163.672 225.091 C 162.920 225.091,162.612 225.171,162.988 225.269 M238.566 225.282 C 239.259 225.368,240.489 225.370,241.300 225.285 C 242.110 225.201,241.543 225.130,240.039 225.128 C 238.535 225.126,237.872 225.196,238.566 225.282 M55.169 226.563 C 55.169 227.314,55.249 227.622,55.347 227.246 C 55.446 226.870,55.446 226.255,55.347 225.879 C 55.249 225.503,55.169 225.811,55.169 226.563 M245.611 226.007 C 246.957 226.343,247.959 226.780,247.837 226.977 C 247.714 227.176,247.922 227.217,248.307 227.070 C 249.218 226.720,247.258 225.885,244.847 225.596 C 243.562 225.442,243.742 225.539,245.611 226.007 M152.148 226.172 C 151.656 226.383,151.584 226.508,151.953 226.508 C 152.275 226.508,152.891 226.357,153.320 226.172 C 153.813 225.960,153.885 225.836,153.516 225.836 C 153.193 225.836,152.578 225.987,152.148 226.172 M147.266 228.433 C 146.729 228.795,145.278 230.043,144.043 231.206 C 142.808 232.370,141.797 233.128,141.797 232.891 C 141.797 232.365,147.243 227.726,147.826 227.755 C 148.055 227.766,147.803 228.071,147.266 228.433 M345.013 229.688 C 345.013 230.439,345.093 230.747,345.191 230.371 C 345.289 229.995,345.289 229.380,345.191 229.004 C 345.093 228.628,345.013 228.936,345.013 229.688 M54.395 232.227 C 54.400 233.086,54.480 233.392,54.573 232.906 C 54.667 232.420,54.663 231.717,54.565 231.343 C 54.467 230.970,54.391 231.367,54.395 232.227 M345.403 232.422 C 345.403 233.174,345.484 233.481,345.582 233.105 C 345.680 232.729,345.680 232.114,345.582 231.738 C 345.484 231.362,345.403 231.670,345.403 232.422 M54.005 235.352 C 54.009 236.211,54.089 236.517,54.183 236.031 C 54.276 235.545,54.272 234.842,54.175 234.468 C 54.077 234.095,54.000 234.492,54.005 235.352 M345.802 235.352 C 345.806 236.211,345.886 236.517,345.979 236.031 C 346.073 235.545,346.069 234.842,345.972 234.468 C 345.874 234.095,345.797 234.492,345.802 235.352 M53.614 238.867 C 53.618 239.727,53.698 240.032,53.792 239.546 C 53.885 239.060,53.882 238.357,53.784 237.984 C 53.686 237.610,53.610 238.008,53.614 238.867 M346.192 238.867 C 346.197 239.727,346.277 240.032,346.370 239.546 C 346.463 239.060,346.460 238.357,346.362 237.984 C 346.264 237.610,346.188 238.008,346.192 238.867 M346.596 243.164 C 346.599 244.238,346.675 244.631,346.765 244.038 C 346.854 243.444,346.852 242.565,346.759 242.084 C 346.667 241.604,346.593 242.090,346.596 243.164 M347.000 248.047 C 347.000 249.443,347.071 250.015,347.158 249.316 C 347.244 248.618,347.244 247.476,347.158 246.777 C 347.071 246.079,347.000 246.650,347.000 248.047 M129.242 249.512 C 128.119 250.868,127.642 251.563,127.835 251.563 C 127.944 251.563,128.502 250.947,129.075 250.195 C 130.139 248.800,130.268 248.273,129.242 249.512 M274.609 255.262 C 274.609 255.449,274.910 255.935,275.277 256.341 C 275.856 256.980,275.869 257.132,275.375 257.475 C 274.880 257.819,274.882 257.849,275.391 257.698 C 275.713 257.602,276.317 257.808,276.732 258.156 C 277.195 258.544,277.052 258.184,276.363 257.227 C 274.866 255.147,274.609 254.859,274.609 255.262 M124.358 255.957 C 123.466 257.423,118.987 262.867,118.814 262.695 C 118.703 262.583,119.054 262.010,119.595 261.422 C 120.135 260.833,121.407 259.253,122.421 257.910 C 124.054 255.748,125.172 254.620,124.358 255.957 M346.981 259.375 C 346.981 260.342,347.058 260.737,347.151 260.254 C 347.244 259.771,347.244 258.979,347.151 258.496 C 347.058 258.013,346.981 258.408,346.981 259.375 M53.164 261.556 C 53.185 262.183,53.352 263.135,53.535 263.672 C 53.759 264.330,53.793 264.012,53.641 262.695 C 53.387 260.498,53.105 259.823,53.164 261.556 M345.947 264.893 C 345.810 265.579,345.770 266.213,345.859 266.301 C 345.947 266.390,346.141 265.910,346.289 265.234 C 346.437 264.559,346.477 263.925,346.378 263.826 C 346.278 263.726,346.085 264.206,345.947 264.893 M53.915 265.271 C 53.903 266.125,55.251 269.970,56.042 271.339 C 56.399 271.956,56.562 272.109,56.404 271.680 C 56.247 271.250,55.624 269.492,55.020 267.773 C 54.417 266.055,53.919 264.929,53.915 265.271 M114.128 268.652 C 113.265 269.673,111.197 271.826,109.532 273.438 C 107.254 275.644,107.603 275.185,110.948 271.582 C 115.531 266.643,116.873 265.407,114.128 268.652 M290.241 272.909 C 292.708 275.412,294.199 277.095,293.555 276.649 C 292.045 275.606,285.076 268.359,285.583 268.359 C 285.677 268.359,287.774 270.407,290.241 272.909 M343.813 271.306 C 343.159 272.742,343.284 273.049,343.992 271.743 C 344.322 271.133,344.519 270.561,344.430 270.472 C 344.341 270.382,344.063 270.758,343.813 271.306 M340.481 277.051 C 339.624 278.213,339.370 278.731,339.895 278.246 C 340.720 277.483,342.417 274.999,342.112 275.000 C 342.046 275.001,341.312 275.924,340.481 277.051 M64.504 281.671 C 65.443 282.495,66.069 283.177,65.895 283.186 C 65.418 283.212,61.353 279.270,60.474 277.931 C 59.973 277.167,60.244 277.353,61.251 278.465 C 62.101 279.404,63.565 280.846,64.504 281.671 M103.498 279.123 C 103.221 279.457,102.628 279.907,102.181 280.123 C 101.588 280.409,101.665 280.244,102.463 279.516 C 103.677 278.408,104.282 278.178,103.498 279.123 M337.964 280.093 C 337.494 280.531,337.109 281.001,337.109 281.138 C 337.109 281.274,337.549 280.973,338.086 280.469 C 339.002 279.608,339.229 279.297,338.941 279.297 C 338.874 279.297,338.434 279.655,337.964 280.093 M98.582 282.722 C 95.600 284.694,95.502 284.777,97.070 284.002 C 98.532 283.280,100.825 281.660,100.391 281.656 C 100.283 281.656,99.469 282.135,98.582 282.722 M300.195 282.233 C 300.625 282.582,300.945 282.993,300.907 283.147 C 300.868 283.301,301.188 283.426,301.617 283.426 C 302.490 283.426,301.884 282.810,300.195 281.981 L 299.414 281.598 300.195 282.233 M302.930 283.930 C 303.460 284.459,307.446 286.435,307.624 286.257 C 307.702 286.178,306.590 285.535,305.153 284.827 C 303.715 284.119,302.715 283.716,302.930 283.930 M331.445 285.156 C 330.801 285.583,330.449 285.930,330.664 285.926 C 331.056 285.920,333.180 284.398,332.813 284.386 C 332.705 284.383,332.090 284.729,331.445 285.156 M69.336 286.328 C 68.668 286.615,68.654 286.668,69.238 286.691 C 69.614 286.706,69.922 286.895,69.922 287.109 C 69.922 287.324,70.119 287.500,70.360 287.500 C 70.646 287.500,70.612 287.270,70.263 286.841 C 69.791 286.261,69.812 286.214,70.442 286.450 C 70.836 286.598,71.242 286.719,71.344 286.719 C 71.447 286.719,71.449 286.851,71.349 287.012 C 71.250 287.173,71.547 287.321,72.010 287.342 C 72.473 287.363,73.899 287.670,75.180 288.026 C 76.767 288.466,78.818 288.652,81.625 288.608 L 85.742 288.545 80.664 288.265 C 77.116 288.070,74.939 287.748,73.438 287.197 C 72.256 286.763,71.025 286.315,70.703 286.200 C 70.381 286.086,69.766 286.143,69.336 286.328 M328.125 286.719 C 327.158 287.124,326.565 287.466,326.808 287.478 C 327.362 287.506,330.078 286.384,330.078 286.128 C 330.078 285.886,330.188 285.853,328.125 286.719 M311.914 287.872 C 312.664 288.212,314.756 288.434,314.421 288.138 C 314.331 288.059,313.555 287.887,312.695 287.756 C 311.606 287.591,311.370 287.626,311.914 287.872 M324.219 287.891 C 323.434 288.142,323.395 288.206,324.023 288.215 C 324.453 288.221,325.156 288.075,325.586 287.891 C 326.581 287.463,325.554 287.463,324.219 287.891 M315.527 288.557 C 316.011 288.650,316.802 288.650,317.285 288.557 C 317.769 288.464,317.373 288.388,316.406 288.388 C 315.439 288.388,315.044 288.464,315.527 288.557 M320.025 288.562 C 320.619 288.651,321.498 288.649,321.978 288.556 C 322.458 288.464,321.973 288.390,320.898 288.393 C 319.824 288.396,319.431 288.472,320.025 288.562 " stroke="none" fill="#6b439f" fill-rule="evenodd"></path><path id="path1" d="M136.232 110.532 C 144.236 111.259,148.856 113.284,153.836 118.246 L 157.087 121.484 200.321 121.482 L 243.555 121.479 244.507 120.081 C 248.780 113.807,255.994 110.715,266.111 110.819 C 285.182 111.014,297.977 115.119,307.960 124.243 C 324.689 139.532,343.289 199.578,346.492 248.633 C 348.084 273.014,336.402 288.680,317.288 287.797 C 304.037 287.185,291.344 276.966,273.026 252.161 C 257.797 231.537,254.344 228.021,246.875 225.530 C 244.574 224.762,159.623 224.164,156.125 224.891 C 155.319 225.058,174.925 225.195,199.694 225.195 L 244.727 225.195 247.144 226.070 C 254.238 228.638,257.489 231.912,271.098 250.195 C 288.359 273.384,296.752 281.533,308.203 286.222 C 324.063 292.716,340.414 284.140,345.476 266.672 C 350.365 249.804,341.992 197.742,328.503 161.133 C 314.348 122.717,302.869 112.695,270.541 110.528 C 257.823 109.676,249.560 112.421,244.704 119.113 L 243.408 120.898 200.211 120.937 L 157.014 120.976 153.800 117.776 C 148.784 112.781,143.882 110.679,136.523 110.368 L 132.617 110.203 136.232 110.532 M125.391 110.806 C 96.816 113.604,84.944 124.337,72.319 158.789 C 62.611 185.280,54.037 224.992,53.384 246.484 C 53.296 249.385,53.291 250.791,53.372 249.609 C 55.404 220.142,62.928 185.284,73.211 157.699 C 85.864 123.759,97.536 113.610,126.758 111.138 C 130.755 110.799,131.686 110.647,129.688 110.657 C 128.076 110.665,126.143 110.732,125.391 110.806 M273.640 136.357 C 272.784 136.570,271.905 136.940,271.686 137.180 C 271.400 137.494,271.507 137.532,272.070 137.317 C 286.992 131.625,296.789 153.216,282.472 160.238 C 268.377 167.152,257.327 147.112,270.322 138.204 C 270.854 137.839,271.084 137.532,270.832 137.520 C 269.758 137.472,266.116 141.420,265.056 143.781 C 258.691 157.965,279.243 169.044,287.801 156.042 C 294.209 146.305,285.016 133.525,273.640 136.357 M117.034 141.430 C 113.366 141.852,113.285 142.130,113.283 154.395 L 113.281 164.844 103.613 164.845 C 90.654 164.847,91.081 164.595,90.896 172.363 C 90.841 174.673,90.911 176.563,91.052 176.563 C 91.192 176.563,91.320 174.546,91.337 172.082 C 91.383 164.952,91.005 165.153,104.035 165.312 L 113.673 165.430 113.672 154.663 L 113.672 143.896 114.767 142.847 L 115.863 141.797 123.575 141.797 L 131.287 141.797 132.245 142.830 L 133.203 143.864 133.204 154.647 L 133.205 165.430 143.323 165.430 C 148.888 165.430,153.360 165.298,153.260 165.137 C 153.161 164.976,148.695 164.844,143.336 164.844 L 133.594 164.844 133.594 154.267 L 133.594 143.690 132.452 142.548 C 131.824 141.920,130.989 141.394,130.596 141.379 C 126.559 141.225,118.548 141.255,117.034 141.430 M247.635 161.481 C 241.011 164.032,237.705 169.199,238.709 175.434 C 241.283 191.420,264.648 189.798,264.648 173.633 C 264.648 165.185,255.319 158.522,247.635 161.481 M297.656 161.303 C 286.248 164.786,285.124 180.148,295.907 185.213 C 309.140 191.430,320.825 175.059,310.515 164.749 C 309.278 163.512,308.057 162.500,307.801 162.500 C 307.546 162.500,308.158 163.179,309.162 164.008 C 320.571 173.436,309.684 191.132,296.240 185.011 C 282.011 178.532,290.546 156.674,305.258 161.914 C 307.318 162.647,307.491 162.378,305.477 161.572 C 303.822 160.910,299.437 160.759,297.656 161.303 M257.141 162.636 C 265.363 166.659,266.827 176.769,260.091 183.005 C 252.096 190.407,239.063 184.598,239.063 173.633 C 239.063 164.477,248.799 158.555,257.141 162.636 M154.650 166.797 C 156.034 169.116,155.888 181.864,154.457 183.564 L 153.446 184.766 143.325 184.766 L 133.203 184.766 133.203 195.646 L 133.203 206.527 132.245 207.560 L 131.287 208.594 123.621 208.594 L 115.956 208.594 114.814 207.452 L 113.672 206.310 113.672 195.538 L 113.672 184.766 103.559 184.766 C 91.344 184.766,91.732 184.904,91.372 180.406 L 91.142 177.539 91.079 180.390 C 90.970 185.307,92.808 185.886,106.934 185.379 L 113.281 185.152 113.281 195.525 C 113.281 209.791,112.647 208.984,123.877 208.984 L 131.310 208.984 132.452 207.843 L 133.594 206.701 133.594 196.016 L 133.594 185.330 143.262 185.324 C 156.565 185.315,155.969 185.825,155.785 174.593 C 155.668 167.438,155.636 167.180,154.749 166.319 L 153.834 165.430 154.650 166.797 M272.606 185.744 C 259.878 189.829,260.875 209.158,273.893 210.732 L 275.586 210.937 273.633 210.420 C 259.101 206.575,261.419 185.670,276.367 185.761 C 292.072 185.858,294.174 206.428,278.906 210.614 C 276.823 211.185,276.683 211.268,278.125 211.077 C 291.406 209.316,294.070 191.957,281.897 186.494 C 279.004 185.196,275.256 184.894,272.606 185.744 M151.758 225.962 C 150.217 226.668,150.566 226.680,152.734 225.997 C 153.701 225.692,154.141 225.439,153.711 225.434 C 153.281 225.430,152.402 225.667,151.758 225.962 M145.253 229.531 C 142.217 231.995,138.937 235.941,129.699 248.242 C 112.315 271.392,103.909 280.055,94.238 284.788 C 75.209 294.102,55.975 281.919,53.543 259.013 C 53.273 256.468,53.222 256.328,53.182 258.008 C 52.712 277.618,72.809 293.306,90.234 286.932 C 101.980 282.636,110.445 274.505,129.320 249.388 C 140.130 235.005,143.685 230.854,147.266 228.435 C 147.803 228.072,148.066 227.767,147.852 227.757 C 147.637 227.747,146.467 228.545,145.253 229.531 " stroke="none" fill="#431e6c" fill-rule="evenodd"></path></g></svg>